<?xml version="1.0" standalone="no"?>
<!DOCTYPE svg PUBLIC "-//W3C//DTD SVG 20010904//EN"
 "http://www.w3.org/TR/2001/REC-SVG-20010904/DTD/svg10.dtd">
<svg version="1.0" xmlns="http://www.w3.org/2000/svg"
 width="16.000000pt" height="16.000000pt" viewBox="0 0 16.000000 16.000000"
 preserveAspectRatio="xMidYMid meet">
<metadata>
Created by potrace 1.11, written by Peter Selinger 2001-2013
</metadata>
<g transform="translate(0.000000,16.000000) scale(0.002556,-0.002556)"
fill="#000000" stroke="none">
<path d="M1011 6249 c-43 -13 -122 -93 -141 -144 -12 -34 -16 -198 -20 -1060
l-5 -1020 -108 -3 c-143 -4 -199 -24 -277 -102 -39 -39 -65 -76 -81 -116 l-24
-59 0 -990 0 -990 24 -55 c13 -30 33 -64 43 -76 10 -11 16 -24 13 -27 -3 -4
-2 -5 1 -2 4 2 22 -11 41 -30 19 -19 41 -35 48 -35 8 0 17 -5 21 -12 5 -7 2
-8 -7 -3 -8 5 -11 4 -6 -1 5 -5 14 -9 20 -10 7 0 20 -2 30 -2 11 -1 15 -7 11
-14 -5 -8 -2 -9 10 -5 24 9 68 -2 59 -16 -4 -6 -1 -7 8 -1 17 11 179 14 179 3
0 -4 -6 -10 -12 -12 -10 -4 -10 -6 0 -6 9 -1 12 -130 12 -613 0 -707 -1 -698
81 -780 28 -28 62 -51 85 -57 27 -8 665 -11 2123 -11 l2085 0 43 21 c51 24
104 83 123 136 12 30 15 166 20 683 l5 644 92 2 c51 1 91 -2 88 -6 -7 -11 22
-6 32 5 4 4 1 5 -7 0 -12 -6 -13 -5 -3 5 10 11 15 11 28 0 8 -7 18 -10 22 -6
3 3 1 6 -6 6 -7 0 -9 5 -6 11 4 6 9 8 12 5 3 -3 19 4 36 16 28 20 31 20 42 4
11 -15 13 -15 19 -1 3 9 2 13 -4 10 -6 -3 -10 -1 -10 6 0 7 8 9 21 6 14 -4 17
-2 11 6 -7 8 -5 17 6 27 14 13 15 12 9 -3 -3 -9 -2 -17 3 -17 6 0 10 9 10 20
0 11 5 20 11 20 5 0 8 4 4 9 -3 6 1 13 8 18 8 4 22 23 31 41 10 20 21 30 29
26 9 -5 9 -4 0 6 -9 10 -9 20 2 47 8 18 11 33 7 33 -4 0 2 7 12 15 11 8 14 15
8 15 -7 0 -12 5 -12 11 0 5 6 7 13 3 9 -6 9 -4 0 7 -16 16 -17 33 -3 24 6 -4
9 -1 8 7 -2 7 3 12 10 10 8 -1 11 2 7 8 -5 8 -11 8 -20 0 -11 -9 -13 2 -13 62
1 40 6 79 12 87 8 11 8 13 -1 7 -8 -4 -13 -1 -13 9 0 9 5 13 10 10 6 -3 10 -1
10 4 0 6 -4 11 -9 11 -5 0 -9 14 -9 30 1 22 4 28 12 20 5 -5 15 -10 20 -10 6
0 0 7 -12 16 -22 15 -33 62 -11 49 6 -4 5 3 -3 14 -11 18 -11 23 1 30 11 7 11
9 0 13 -7 2 -9 9 -5 17 5 7 15 10 23 7 8 -4 11 -1 8 5 -4 6 -13 8 -21 5 -17
-7 -18 6 -1 23 10 11 10 13 0 7 -7 -4 -13 -2 -13 3 0 10 14 15 33 12 5 -1 6 3
2 8 -3 6 -12 8 -20 4 -8 -3 -15 0 -15 6 0 6 6 11 13 11 8 0 8 3 1 8 -5 4 -10
28 -10 54 -1 37 2 45 12 37 8 -7 14 -6 20 2 4 7 3 9 -4 5 -16 -10 -27 14 -29
67 -2 31 1 46 8 41 6 -3 5 3 -2 14 -11 17 -10 24 2 38 9 11 9 15 2 10 -19 -11
-15 5 5 20 16 13 16 14 0 8 -14 -5 -18 -1 -18 16 0 11 4 19 8 16 5 -3 9 1 9 9
0 8 -4 12 -9 9 -4 -3 -8 2 -8 11 0 11 5 15 15 12 8 -4 17 -2 20 4 4 5 3 9 -2
8 -23 -4 -29 5 -30 44 -1 23 4 48 11 56 8 12 8 13 -1 7 -8 -4 -13 -1 -13 9 0
9 5 13 10 10 6 -3 10 -1 10 4 0 6 -4 11 -10 11 -15 0 -12 47 3 53 10 4 10 6 0
6 -7 1 -13 8 -13 17 0 8 4 13 8 10 5 -3 9 1 9 9 0 8 -5 11 -10 8 -5 -3 -8 0
-5 8 3 8 10 14 16 14 5 0 14 3 18 7 3 4 -3 6 -14 3 -16 -3 -20 1 -19 18 0 12
6 25 12 29 6 5 6 8 -2 8 -7 0 -13 5 -13 11 0 6 8 8 18 5 16 -6 16 -5 0 8 -21
15 -24 31 -5 20 10 -6 10 -4 0 7 -21 22 -16 48 8 44 12 -3 18 -1 15 3 -4 4
-13 7 -19 7 -16 0 -19 125 -3 144 8 11 8 13 -1 7 -8 -4 -13 -1 -13 9 0 9 5 13
10 10 6 -3 10 -1 10 4 0 6 -4 11 -10 11 -5 0 -10 12 -10 26 0 15 4 23 11 19 6
-4 5 3 -3 14 -11 18 -11 23 1 30 11 7 11 9 0 14 -12 4 -11 7 1 16 10 7 11 11
3 11 -7 0 -13 5 -13 11 0 5 4 8 9 4 5 -3 13 0 17 6 4 7 3 9 -4 5 -6 -3 -14 -1
-18 5 -3 6 0 15 7 20 10 6 11 9 2 9 -7 0 -13 5 -13 11 0 6 7 9 15 6 8 -4 17
-2 20 4 4 5 3 9 -2 8 -22 -4 -30 3 -30 26 0 13 3 22 8 20 4 -3 11 -1 14 5 4 6
1 9 -6 8 -7 -2 -14 9 -15 25 -2 19 1 25 9 20 9 -5 9 -3 0 8 -6 8 -11 16 -11
19 1 3 -9 37 -22 75 -13 39 -23 76 -21 84 1 7 -2 10 -7 7 -5 -3 -14 5 -21 17
-7 12 -36 40 -65 62 -30 22 -51 44 -48 49 3 5 1 6 -5 3 -5 -3 -32 1 -59 9 -27
8 -94 16 -149 17 l-100 2 -5 386 -5 386 -27 39 c-14 21 -42 55 -60 75 -34 36
-290 328 -428 488 -41 48 -84 96 -95 107 -11 12 -31 34 -44 50 -14 16 -70 81
-125 143 -56 63 -164 187 -240 275 -77 89 -167 189 -201 224 l-61 62 -1540 -1
c-956 0 -1552 -4 -1573 -10z"/>
<path d="M5910 3740 c0 -5 5 -10 11 -10 5 0 7 5 4 10 -3 6 -8 10 -11 10 -2 0
-4 -4 -4 -10z"/>
<path d="M5926 3418 c3 -5 10 -6 15 -3 13 9 11 12 -6 12 -8 0 -12 -4 -9 -9z"/>
<path d="M5956 3378 c3 -5 10 -6 15 -3 13 9 11 12 -6 12 -8 0 -12 -4 -9 -9z"/>
<path d="M5934 3260 c0 -13 4 -16 10 -10 7 7 7 13 0 20 -6 6 -10 3 -10 -10z"/>
<path d="M5934 2780 c0 -13 4 -16 10 -10 7 7 7 13 0 20 -6 6 -10 3 -10 -10z"/>
<path d="M5926 2578 c3 -5 10 -6 15 -3 13 9 11 12 -6 12 -8 0 -12 -4 -9 -9z"/>
<path d="M5930 2400 c0 -5 5 -10 11 -10 5 0 7 5 4 10 -3 6 -8 10 -11 10 -2 0
-4 -4 -4 -10z"/>
<path d="M5926 2198 c3 -5 10 -6 15 -3 13 9 11 12 -6 12 -8 0 -12 -4 -9 -9z"/>
<path d="M5934 1980 c0 -13 4 -16 10 -10 7 7 7 13 0 20 -6 6 -10 3 -10 -10z"/>
<path d="M5910 1751 c0 -5 7 -12 16 -15 14 -5 15 -4 4 9 -14 17 -20 19 -20 6z"/>
<path d="M5895 1720 c-3 -5 -1 -10 4 -10 6 0 11 5 11 10 0 6 -2 10 -4 10 -3 0
-8 -4 -11 -10z"/>
<path d="M5915 1699 c-4 -6 -5 -12 -2 -15 2 -3 7 2 10 11 7 17 1 20 -8 4z"/>
<path d="M5875 1671 c-3 -5 0 -13 6 -17 7 -4 9 -3 5 4 -3 5 0 13 6 15 9 4 10
6 1 6 -6 1 -14 -3 -18 -8z"/>
<path d="M5852 1629 c-7 -12 -11 -24 -8 -27 3 -3 6 0 6 7 0 7 4 10 8 7 4 -2 9
4 9 15 2 24 1 24 -15 -2z"/>
<path d="M5896 1635 c-9 -26 -7 -32 5 -12 6 10 9 21 6 23 -2 3 -7 -2 -11 -11z"/>
<path d="M5842 1558 c-7 -7 -12 -17 -12 -22 0 -6 5 -3 11 7 6 9 15 14 21 11 7
-4 8 -2 4 4 -9 15 -9 15 -24 0z"/>
<path d="M5790 1529 c-22 -18 -22 -19 -3 -10 12 6 25 16 28 21 9 15 3 12 -25
-11z"/>
<path d="M5719 1528 c-8 -32 -7 -48 3 -48 6 0 8 3 5 7 -4 3 -2 12 4 19 7 8 7
14 -1 19 -5 3 -10 5 -11 3z"/>
<path d="M5684 1499 c-3 -6 -2 -15 3 -20 5 -5 9 -1 9 11 0 23 -2 24 -12 9z"/>
<path d="M627 1479 c7 -7 15 -10 18 -7 3 3 -2 9 -12 12 -14 6 -15 5 -6 -5z"/>
<path d="M5555 1470 c-3 -6 1 -7 9 -4 18 7 21 14 7 14 -6 0 -13 -4 -16 -10z"/>
<path d="M5433 1445 c0 -8 4 -12 9 -9 5 3 6 10 3 15 -9 13 -12 11 -12 -6z"/>
</g>
</svg>
